<?xml version="1.0" encoding="utf-8"?>
<!-- Generator: Adobe Illustrator 25.2.1, SVG Export Plug-In . SVG Version: 6.00 Build 0)  -->
<svg version="1.1"
	 id="Layer_1" shape-rendering="geometricPrecision" image-rendering="optimizeQuality" text-rendering="geometricPrecision"
	 xmlns="http://www.w3.org/2000/svg" xmlns:xlink="http://www.w3.org/1999/xlink" x="0px" y="0px" viewBox="0 0 1333.3 773.5"
	 style="enable-background:new 0 0 1333.3 773.5;" xml:space="preserve">
<style type="text/css">
	.st0{fill:#FFFFFF;}
</style>
<path class="st0" d="M1333.3,753.5c-48.5,12.3-78.5,0.5-105.4-39.9l-191.4-264.8l-27.7-36.7L785.3,714.5
	c-25.5,36.4-52.3,52.2-100,39.3l286.2-384.2L705,22.5c45.8-8.9,77.5-4.4,105.6,36.7l198.5,268.1l200-266.7
	c25.6-36.4,53.2-50.2,99.2-36.8l-103.3,137l-140,182.3c-16.7,20.8-14.4,35.1,1,55.2L1333.3,753.5z M0.3,363.2L23.8,248
	C87.5,20.1,348.8-74.6,528.9,66.2c105.3,82.8,131.5,200,126.2,331.2H61.7c-8.9,236.2,161.1,378.8,377.9,306.1
	c76-25.5,120.8-85.1,143.2-159.6c11.4-37.3,30.2-43.2,65.3-32.5c-17.9,93.2-58.3,171-143.8,219.7c-127.6,72.9-309.8,49.3-405.6-52
	c-57.1-58.8-80.7-133.3-91.2-213c-1.7-13.2-5-25.7-7.5-38.3C0.2,406.3,0.3,384.8,0.3,363.2L0.3,363.2z M62.8,347.3h536.3
	C595.6,176.5,489.2,55.2,343.8,54.1C184.3,52.9,69.7,171.3,62.8,347.3L62.8,347.3L62.8,347.3z"/>
</svg>
