<?xml version="1.0" encoding="utf-8"?>
<!-- Generator: Adobe Illustrator 25.2.1, SVG Export Plug-In . SVG Version: 6.00 Build 0)  -->
<svg version="1.1" id="Layer_1" xmlns="http://www.w3.org/2000/svg" xmlns:xlink="http://www.w3.org/1999/xlink" x="0px" y="0px"
	 viewBox="0 0 1025 1025" style="enable-background:new 0 0 1025 1025;" xml:space="preserve">
<style type="text/css">
	.st0{fill:#FFFFFF;}
</style>
<g transform="translate(0.000000,1025.000000) scale(0.100000,-0.100000)">
	<path class="st0" d="M4810,10234c-380-33-623-71-915-144c-911-226-1719-683-2385-1350C670,7901,165,6840,33,5640
		c-26-234-26-806,0-1040c132-1200,637-2261,1477-3100C2349,661,3411,155,4610,23c234-26,806-26,1040,0c1200,132,2261,637,3100,1477
		c839,839,1345,1901,1477,3100c26,234,26,806,0,1040c-132,1200-637,2261-1477,3100c-836,837-1898,1344-3090,1476
		C5523,10231,4924,10244,4810,10234z M2641,8217c31-16,51-36,67-67c27-55,28-84,1-161c-18-53-20-67-10-100c20-65,48-74,239-74h164
		l25-29c25-30,27-61,7-133c-5-18,2-27,42-53c57-36,88-45,214-66c202-32,263-64,276-145c4-24,12-39,21-39c39,0,149-49,233-105
		c120-79,127-83,191-96c75-16,357-122,464-175c105-51,191-123,226-188c23-44,23-46,6-63c-14-15-34-18-105-17c-77,0-102,6-222,48
		c-219,76-295,73-342-17c-29-55-28-101,6-572c49-685,79-917,156-1225c44-173,134-431,194-555c90-183,178-310,415-595
		c316-380,502-540,883-757c240-138,475-233,763-308c129-34,315-75,341-75c7,0,78,65,156,143c153,154,232,207,307,207
		c45,0,105-29,109-53c6-29-34-97-108-187c-87-105-90-130-18-144c32-6,75-5,130,3c79,12,88,11,183-14c115-31,191-46,208-40
		c7,2,24,6,39,9c14,3,47,22,72,41l46,35l38-24c52-35,131-44,318-38c185,5,214-3,241-65c17-43,10-123-15-153c-24-27-116-55-260-79
		c-140-24-220-49-268-86l-35-26l-47,18c-33,13-72,18-132,17c-75-1-106-8-260-59c-156-51-188-58-295-65c-66-5-165-16-220-24
		c-314-48-757-68-1035-47c-797,61-1043,101-1460,236c-284,93-415,154-698,324c-147,88-399,276-574,428c-162,141-229,218-489,563
		c-303,403-558,873-749,1384c-55,148-115,362-204,731c-64,269-120,443-183,575c-56,117-71,188-56,269c17,90,60,168,133,241
		c76,76,164,126,295,165c86,26,191,72,183,80c-8,9-119-27-173-55c-71-37-108-38-142-4c-22,22-25,32-20,70c9,83,69,134,184,155
		c104,19,168,67,193,145c18,55,8,127-23,164c-15,17-27,37-27,44c0,25,42,67,136,137c140,105,163,159,92,218
		c-127,107-167,199-119,277C2393,8239,2547,8266,2641,8217z"/>
	<path class="st0" d="M2480,8193c-74-38-101-148-49-197l22-21l-17,25c-41,62-12,81,112,73c105-7,118,2,89,62
		C2607,8198,2539,8223,2480,8193z"/>
	<path class="st0" d="M2610,7735c-7-8-8-15-2-15c5,0,15,7,22,15s8,15,2,15C2627,7750,2617,7743,2610,7735z"/>
	<path class="st0" d="M2822,7733c-12-2-27-13-32-23c-8-15-6-20,10-25c38-12,142,17,124,35C2912,7731,2851,7739,2822,7733z"/>
	<path class="st0" d="M2840,7515c0-89,118-225,194-225c49,0,60,12,53,56c-12,77-12,79,3,78c8-1,26-4,40-8c22-6,20-2-14,29
		c-30,27-66,44-150,70c-60,19-113,35-118,35C2844,7550,2840,7534,2840,7515z"/>
	<path class="st0" d="M2695,7386c-97-26-174-53-190-69c-12-11,27-5,105,18c42,12,78,14,153,9c64-5,97-3,97,3c0,9-63,64-72,63
		C2786,7409,2745,7398,2695,7386z"/>
	<path class="st0" d="M3220,7290c-36-9-121-34-188-54c-68-20-130-36-137-36c-23,0-438-111-474-127c-62-28-9-27,80,2
		c225,71,383,78,485,21l42-23l-10,33c-9,33,2,74,20,74c19,0,55-36,92-90c45-66,68-83,107-78c42,5,66,48,66,117v61l50-47
		c62-58,73-43,22,29c-37,51-37,52-20,80C3390,7312,3346,7325,3220,7290z"/>
	<path class="st0" d="M3870,7083c-84-6-295-35-400-55c-150-28-276-60-515-133c-238-73-369-107-502-131c-140-25-153-43-62-89
		c55-28,59-36,27-50c-36-17-32-33,16-62c52-31,58-54,21-71c-34-16-70-15-126,2c-113,34-153,75-147,147l5,46l-71-13
		c-148-29-263-82-308-145c-49-66-40-162,23-260l34-54l5,120c8,183,46,240,161,240c65-1,99-18,52-28c-40-8-73-42-73-77
		c0-62,126-160,206-160c49,0,64,14,64,60v37l105,17c58,9,110,14,116,10c7-4,8-20,4-41l-6-34l38,7c61,11,148,46,293,119
		c189,95,253,116,375,121c187,7,493,59,655,110c41,12,98,28,125,34c161,36,292,198,244,303c-8,17-22,27-48,31
		C4145,7090,3955,7089,3870,7083z M3730,7020c34-36,47-84,30-105c-14-17-76-20-116-5c-25,10-26,13-20,56c3,24,10,54,16,64
		C3656,7060,3697,7055,3730,7020z M3955,7010c8-12-33-38-73-46c-20-4-32-13-32-23c0-28-18-47-30-35c-15,15,9,64,46,93
		C3894,7021,3944,7027,3955,7010z M3336,6886c18-14,17-16-21-32c-42-17-92-20-160-9c-29,5-54,1-93-14c-29-12-62-21-74-21
		c-56,0,50,63,135,79C3195,6904,3314,6902,3336,6886z M2960,6796c0-18-17-29-30-21c-8,5-7,11,1,21C2946,6814,2960,6814,2960,6796z
		 M2868,6734c52-34,37-64-32-64c-41,0-86,30-86,56C2750,6761,2819,6766,2868,6734z M2673,6725c-5-16-53-21-53-7c0,11,42,31,52,25
		C2676,6741,2677,6733,2673,6725z M2729,6656c57-30,115-116,93-138c-10-10-43,3-121,47c-24,14-55,25-68,25c-29,0-30,19-2,54
		C2654,6674,2687,6677,2729,6656z"/>
	<path class="st0" d="M4590,6866c0-9,24-29,55-47c30-17,57-39,60-50c8-23,31-25,39-3c16,41-42,96-116,109
		C4597,6881,4590,6879,4590,6866z"/>
	<path class="st0" d="M3905,6616c-28-16-63-25-115-30c-86-7-216-36-275-62c-36-15-38-18-21-28c10-6,37-24,60-41c41-30,41-30,14-33
		c-15-2-75,8-133,22c-59,14-108,26-111,26c-2,0-4-9-4-19c0-11-11-33-24-48c-23-27-28-28-105-26c-78,3-81,2-69-16
		c26-42-55-106-174-138c-56-15-74-15-110-6c-41,12-44,11-66-13c-29-34-24-59,34-171c24-46,44-89,44-96s-14-31-30-54
		c-29-40-33-41-103-48c-112-11-147-37-147-108c0-32-2-33-31-29c-52,8-63-32-29-104c29-59,61-79,104-63c28,10,41,9,77-5
		c65-26,109-64,130-112c17-37,19-63,17-171c-3-115-5-128-21-131c-49-10-122,125-101,186c6,18,21,31,42,38l33,10l-33,44
		c-18,24-45,52-59,63c-35,25-49,17-128-72l-62-70l71-51c102-75,124-132,63-163l-25-14l45-17c79-30,114-81,164-236c13-38,26-59,45-69
		c25-14,28-13,67,22c45,40,51,42,84,26c12-6-14,22-58,62c-122,111-177,169-172,182c3,8,24,11,61,10l56-2l-7,57
		c-14,105-10,145,13,157c12,6,28,16,36,23c22,18,25,8,17-50c-10-73-10-180,0-197c14-21,45-5,105,56c65,64,90,66,126,8
		c12-19,37-53,56-76c43-51,54-102,28-130c-16-18-27-20-66-16c-26,3-65,15-88,27c-82,42-56,7,97-131c66-60,86-99,86-169
		c0-54,14-98,45-132c17-20,57-23,96-8c23,8,26,6,36-25c17-53,36-62,49-24c6,18,11,45,11,60c0,34,3,34,61,14c59-21,95-58,120-124
		c33-89,50-121,65-121c25,0,15,49-26,141c-22,49-40,95-40,101c0,18,145-129,187-189c47-68,51-124,10-159c-29-25-85-44-130-44
		c-27,0-25-3,33-52c94-82,148-117,188-123c20-3,47-8,59-11c12-2,44-26,71-53c91-91,119-200,59-229c-23-11-36-11-83,3
		c-31,9-73,29-95,45c-44,31-163,84-219,95c-32,7-34,6-20-10c29-35,116-82,305-164c237-104,446-207,539-268c44-28,123-99,206-184
		l135-138l-49-12c-79-19-204,3-253,45c-30,26-25,42,19,61l30,12l-66,17c-92,23-136,22-136-4c0-35,50-98,94-119c61-30,155-49,295-60
		c68-6,126-13,129-16s-9-25-26-49c-18-24-32-46-32-49c0-2,14-7,31-11l30-6l-27-23c-33-29-27-42,32-68c24-11,46-23,48-28
		c3-5,25-2,48,6c60,21,87,8,138-67c53-79,77-90,124-61c20,13,45,34,56,49c23,29,90,77,90,65c0-5-18-31-41-58c-22-27-36-51-30-53
		s34,11,63,28c146,90,264,81,553-45c72-31,156-61,188-66s94-21,138-35c121-38,167-41,239-14c93,35,84,44-98,90
		c-209,52-264,80-241,121c7,14,0,16-62,11c-141-10-262,47-400,189c-42,44-84,79-93,79c-29,0-210,62-293,100c-120,56-219,123-298,204
		c-81,83-136,172-111,182c23,9,7,34-88,133c-92,98-145,171-235,321c-35,58-82,123-105,145s-57,59-75,83c-18,23-37,42-42,42
		s-9-18-9-39c0-22-4-43-10-46c-5-3-10,3-10,15c0,73-117,201-171,187c-14-4-19,0-19,13c0,36,20,70,54,92c41,26,43,36,17,70
		c-11,14-27,53-35,89c-8,35-35,130-60,210c-24,80-57,209-72,285c-33,167-41,180-82,135c-28-31-37-46-60-101c-10-24-11-23-11,12
		c-1,50,17,131,34,154c11,15,16,17,26,7c7-7,16-13,20-13c12,0,31,58,27,86c-3,25-7,29-36,29c-25,0-31,3-26,15c17,42,26,89,27,149
		c1,84-8,115-35,108c-14-4-18-2-14,9c3,8,11,74,17,147c17,204-7,339-59,320c-12-5-14-2-8,13c37,95,57,330,37,426
		C4039,6635,3986,6664,3905,6616z M3966,6333c4-14-1-58-10-97c-18-80-21-126-6-126c9,0,40,90,40,116c0,20,22,64,32,64
		c13,0,9-41-10-116c-24-91-49-142-80-162c-24-15-26-15-50,13c-23,27-24,34-19,115c7,115,46,220,82,220
		C3953,6360,3963,6348,3966,6333z M3010,6150c0-5-4-10-9-10c-6,0-13,5-16,10c-3,6,1,10,9,10C3003,6160,3010,6156,3010,6150z
		 M3089,6036c19-27,55-59,91-81c64-39,70-48,43-64c-17-9-16-12,10-38c62-66,5-58-99,12c-45,32-50,38-46,68c2,18-5,58-16,90
		c-11,31-19,57-17,57S3073,6060,3089,6036z M3279,6026c24-51-22-63-53-14c-7,12-6,21,4,32C3247,6066,3262,6060,3279,6026z
		 M3800,5870c0-13-1-13-10,0c-5,8-10,22-10,30c0,13,1,13,10,0C3795,5892,3800,5878,3800,5870z M3150,5792c36-14,83-37,105-51
		c57-36,23-39-57-6c-35,15-92,37-127,49c-36,12-67,28-69,35C2996,5838,3068,5825,3150,5792z M3855,5741c5-17,4-21-5-16
		c-11,7-21,29-34,75c-7,23-6,22,12-5C3839,5779,3851,5754,3855,5741z M3025,5768c68-33,206-135,213-155c6-20-35-15-97,11
		c-31,12-76,29-101,37c-47,15-110,83-110,120C2930,5808,2952,5805,3025,5768z M2909,5685c87-47,146-98,138-119c-7-18-57-13-92,9
		c-36,23-135,120-135,133C2820,5727,2837,5722,2909,5685z M2835,5620c4-6,24-18,46-27c78-31,113-114,73-171c-27-39-60-28-124,41
		c-116,124-132,162-43,102c83-56,86-46,17,60c-18,28-18,28,3,16C2819,5635,2832,5625,2835,5620z M3119,5464c25-32,28-56,6-47
		c-14,5-45,52-45,68C3080,5498,3100,5488,3119,5464z M3040,5466c0-16-18-31-27-22c-8,8,5,36,17,36C3035,5480,3040,5474,3040,5466z
		 M3629,5403c1-18-3-33-9-33c-5,0-10,24-9,53c0,38,3,47,9,32C3625,5444,3629,5420,3629,5403z M4010,5418c0-61-14-94-25-59
		c-8,26,4,111,16,111C4006,5470,4010,5446,4010,5418z M3810,5392c12-42,19-52,40-54c24-3,25-6,28-83c2-59,7-83,19-92
		c28-21-4-133-38-133c-23,0-95,108-110,165c-6,22-9,78-7,125C3749,5454,3782,5490,3810,5392z M4066,5395c-3-31-13-70-20-88l-14-32
		l-1,37c-1,51,18,138,31,138C4069,5450,4071,5431,4066,5395z M3283,5273c49-101,89-158,72-103c-4,14-23,62-42,108s-32,86-29,89
		c18,19,142-103,222-219l28-40l-28-23c-27-21-28-25-17-55c16-46,15-47-19-15l-30,29l-28-27c-34-33-51-29-86,21
		c-51,75-117,274-115,351c0,35,1,35,11,11C3228,5386,3255,5329,3283,5273z M3052,5273c2-18-1-33-6-35c-16-5-29,28-22,57
		C3033,5329,3048,5317,3052,5273z M3220,5184c0-42-22-40-53,5c-16,23-16,26,0,44c17,18,18,18,35-3C3212,5218,3220,5197,3220,5184z
		 M4111,5053c-9-16-10-16-11-1c0,9,3,25,7,35c7,16,8,17,11,1C4120,5078,4117,5063,4111,5053z M4093,4955c-3-9-8-14-10-11
		c-3,3-2,9,2,15C4094,4975,4100,4972,4093,4955z M4160,4908c-1-34-3-39-11-26c-8,15-3,68,7,68C4158,4950,4160,4931,4160,4908z
		 M3482,4638c3-7,3-19,1-26c-6-16-33,4-33,24C3450,4653,3476,4654,3482,4638z M3735,4600c10-11,14-20,8-20c-5,0-18,9-28,20
		s-14,20-8,20C3712,4620,3725,4611,3735,4600z M4274,4533c21-42,27-84,17-118l-8-30l-27,55c-29,62-35,120-11,120
		C4253,4560,4266,4548,4274,4533z M4384,4184c8-20-2-54-14-54c-15,0-22,20-16,46C4361,4204,4375,4207,4384,4184z M4622,3886
		c12-22-2-39-25-31c-17,7-48,75-40,88C4563,3953,4607,3914,4622,3886z M4689,3737c0-27-2-29-9-12c-12,28-12,57,0,50
		C4686,3772,4690,3754,4689,3737z M4795,3643c22-26,50-68,63-92c22-45,29-91,13-91s-92,91-112,133c-19,43-25,97-11,97
		C4752,3690,4774,3669,4795,3643z M5780,2910c0-5-4-10-10-10c-5,0-10,5-10,10c0,6,5,10,10,10C5776,2920,5780,2916,5780,2910z"/>
	<path class="st0" d="M2835,6339c-10-15,3-25,16-12c7,7,7,13,1,17C2846,6347,2838,6345,2835,6339z"/>
	<path class="st0" d="M1987,6283c-11-10-8-20,8-27c20-7,42,2,49,20c4,10-3,14-23,14C2006,6290,1990,6287,1987,6283z"/>
	<path class="st0" d="M2480,6130c8-5,45-21,83-36c37-14,67-30,67-35c0-6-24-7-60-3c-67,7-80-5-30-31c57-30,142-8,170,45
		c14,26,6,39-36,56C2635,6142,2455,6146,2480,6130z"/>
	<path class="st0" d="M2261,6046c-17-20-10-38,22-55c23-12,29-12,52,3c18,12,25,24,23,39c-2,18-11,23-44,25
		C2287,6060,2269,6056,2261,6046z"/>
	<path class="st0" d="M2412,5958c7-20,58-23,58-4c0,11-10,16-31,16C2419,5970,2410,5966,2412,5958z"/>
	<path class="st0" d="M2691,5954c0-11,3-14,6-6c3,7,2,16-1,19C2693,5971,2690,5965,2691,5954z"/>
	<path class="st0" d="M1970,5926c0-9,5-16,10-16c6,0,10,4,10,9c0,6-4,13-10,16C1975,5938,1970,5934,1970,5926z"/>
	<path class="st0" d="M2347,5913c-14-13-6-33,13-33c13,0,20,7,20,20C2380,5919,2360,5927,2347,5913z"/>
	<path class="st0" d="M1910,5870c0-5,5-10,11-10c5,0,7,5,4,10c-3,6-8,10-11,10C1912,5880,1910,5876,1910,5870z"/>
	<path class="st0" d="M2246,5761c-4-6,17-22,49-38c51-25,56-26,71-11s14,17-7,31C2327,5763,2254,5775,2246,5761z"/>
	<path class="st0" d="M2034,5645c-7-18,19-60,46-75c17-9,20-8,20,10C2100,5633,2048,5684,2034,5645z"/>
	<path class="st0" d="M2262,5648c-21-21-13-35,28-52c41-16,70-21,70-11c0,4-7,19-15,34C2325,5659,2286,5672,2262,5648z"/>
	<path class="st0" d="M2240,5544c0-7,71-36,77-31c9,10-30,37-53,37C2251,5550,2240,5548,2240,5544z"/>
	<path class="st0" d="M2125,5398c4-18,14-51,22-73s27-81,43-131c28-86,69-148,87-130c14,14-28,142-82,254
		C2140,5429,2112,5461,2125,5398z"/>
	<path class="st0" d="M2056,5333c3-16,30-77,59-138c29-60,76-166,105-235c58-140,121-248,174-299c20-19,36-32,36-28c0,3-15,35-34,69
		c-19,35-50,113-71,175c-21,64-53,138-76,174c-22,34-49,83-59,108C2142,5282,2037,5417,2056,5333z"/>
	<path class="st0" d="M2530,5150c0-5,9-10,19-10c11,0,23,5,26,10c4,6-5,10-19,10S2530,5156,2530,5150z"/>
	<path class="st0" d="M2575,5000c-11-18,42-35,71-22c34,16,21,32-26,32C2599,5010,2578,5006,2575,5000z"/>
	<path class="st0" d="M2966,4993c-12-12-6-43,9-43c8,0,15,9,15,19C2990,4990,2977,5003,2966,4993z"/>
	<path class="st0" d="M3170,4976c0-2,7-6,15-10c8-3,15-1,15,4c0,6-7,10-15,10S3170,4978,3170,4976z"/>
	<path class="st0" d="M3135,4758c31-67,33-114,5-123c-24-8-66,5-172,51c-82,36-125,43-134,20c-5-13,19-76,45-116c5-8,12-22,14-30
		c3-9,38-29,78-45c41-15,138-61,216-102c136-70,193-88,193-60c0,24-61,117-91,139c-43,32-65,80-84,184c-19,103-35,134-70,134h-24
		L3135,4758z"/>
	<path class="st0" d="M2250,4748c0-21,102-251,154-348c40-74,229-367,423-657c11-16,12-14,7,12c-4,25-3,27,6,12c6-9,9-26,5-35
		c-6-22,96-197,185-317c74-99,183-212,258-267c32-23,104-88,162-143c112-108,177-145,265-148c56-3,56,19,0,81
		c-45,50-148,112-186,112c-16,0-143,123-163,157c-5,10-5,23,1,33c9,14,6,16-24,17c-59,2-85,29-190,198c-13,21-29,31-53,35
		c-81,14-115,54-164,194c-20,59-47,124-60,145c-23,37-102,111-117,111c-4,0-13,17-20,38c-17,52-45,94-140,208
		c-103,123-147,191-176,272c-29,80-65,151-119,235C2261,4760,2250,4771,2250,4748z"/>
	<path class="st0" d="M2820,4480c0-5,11-10,25-10s25,5,25,10c0,6-11,10-25,10S2820,4486,2820,4480z"/>
	<path class="st0" d="M2830,4291c0-9,32-34,68-55c21-12,13,14-13,39C2861,4300,2830,4308,2830,4291z"/>
	<path class="st0" d="M3647,4293c-14-13-6-24,28-39c49-20,58-18,44,9C3701,4297,3665,4312,3647,4293z"/>
	<path class="st0" d="M3275,4250c-3-5,7-24,24-40c32-33,30-37-9-15c-34,20-74,20-66,0c3-8,9-22,13-31c5-14,0-15-35-9
		c-24,4-42,3-42-3c0-5,23-29,50-54c58-53,64-72,20-66c-16,3-30,4-30,3s33-27,73-58c77-59,113-94,106-102c-3-2-34,9-68,26
		c-35,16-66,27-69,24c-12-12,39-49,142-101c61-31,129-69,151-84c57-39,165-92,177-88c6,2-7,21-30,42c-35,33-40,42-35,69
		c4,28-1,38-47,81c-36,34-50,55-48,70c2,16-11,31-59,64c-35,23-63,47-63,52c0,6,24,10,53,10h52l-40,23c-59,34-57,53,9,82
		c31,14,56,29,56,34c0,4-48,22-107,39C3311,4258,3283,4263,3275,4250z"/>
	<path class="st0" d="M2991,4164c12-15,81-54,95-54c4,0-1,9-12,21C3040,4169,2961,4200,2991,4164z"/>
	<path class="st0" d="M2859,4046c19-19,37-34,39-31c7,7-28,45-53,57C2833,4079,2838,4069,2859,4046z"/>
	<path class="st0" d="M3945,3780c-3-5,1-13,10-16c22-9,29,1,11,15C3956,3787,3950,3788,3945,3780z"/>
	<path class="st0" d="M4080,3695c7-8,16-15,21-15s6,7,3,15c-4,8-13,15-21,15C4070,3710,4070,3707,4080,3695z"/>
	<path class="st0" d="M3460,3626c14-8,41-15,60-16c50,0,25,17-35,25C3437,3641,3436,3640,3460,3626z"/>
	<path class="st0" d="M3800,3612c0-18,37-41,93-57c87-25,91-12,7,29C3825,3620,3800,3627,3800,3612z"/>
	<path class="st0" d="M3450,3580c0-5,7-10,16-10c8,0,12,5,9,10c-3,6-10,10-16,10C3454,3590,3450,3586,3450,3580z"/>
	<path class="st0" d="M3610,3581c0-12,55-33,77-29c17,4,17,5-2,15C3655,3583,3610,3592,3610,3581z"/>
	<path class="st0" d="M3477,3513c-14-13-6-34,29-72c19-22,49-43,66-46c16-4,51-16,77-28c35-16,67-21,136-21c150-1,201,39,100,78
		c-28,10-76,29-108,42c-31,13-84,30-116,39C3601,3520,3489,3525,3477,3513z"/>
	<path class="st0" d="M3940,3480c0-5,19-22,43-38c23-16,51-39,61-51c35-39,204-78,221-51c8,12-32,36-75,45c-19,4-60,22-90,41
		c-50,30-129,64-151,64C3944,3490,3940,3486,3940,3480z"/>
	<path class="st0" d="M4125,3470c3-5,11-10,17-10s39-13,73-29c66-32,193-55,228-42c19,7,18,9-13,19c-19,6-49,13-66,17
		c-16,3-52,17-79,30c-35,18-65,25-107,25C4141,3480,4121,3476,4125,3470z"/>
	<path class="st0" d="M5197,3353c-16-15-5-33,19-33c20,0,25,4,20,16c-3,9-6,18-6,20C5230,3363,5204,3361,5197,3353z"/>
	<path class="st0" d="M4160,3280c0-14,81-57,123-64c44-8,50,7,10,28C4250,3265,4160,3290,4160,3280z"/>
	<path class="st0" d="M3695,3255c17-7,32-11,35-9c7,8-24,24-45,23C3670,3269,3672,3265,3695,3255z"/>
	<path class="st0" d="M3985,3250c3-5,10-10,16-10c5,0,9,5,9,10c0,6-7,10-16,10C3986,3260,3982,3256,3985,3250z"/>
	<path class="st0" d="M5330,3220c-10-6-8-11,8-19c28-15,42-14,36,3C5367,3223,5347,3230,5330,3220z"/>
	<path class="st0" d="M4159,3096c28-29,102-63,161-72c33-5,41-4,35,5c-11,19-165,91-194,91h-24L4159,3096z"/>
	<path class="st0" d="M4345,3110c-3-5,6-12,20-16c29-7,41-1,30,15C4387,3123,4353,3123,4345,3110z"/>
	<path class="st0" d="M4020,3072c0-12,24-22,52-22c11,0,18,5,16,13C4083,3077,4020,3086,4020,3072z"/>
	<path class="st0" d="M7385,2940c-7-12,2-30,16-30c5,0,9,9,9,20C7410,2951,7395,2957,7385,2940z"/>
	<path class="st0" d="M3998,2898c-36-13-36-28,0-28c27,0,52,15,52,32C4050,2912,4032,2911,3998,2898z"/>
	<path class="st0" d="M4306,2890c16-16,66-17,71-2c3,8-8,12-38,12S4299,2897,4306,2890z"/>
	<path class="st0" d="M4460,2852c0-8,69-42,86-42c3,0,4,10,2,23c-2,18-10,23-45,25C4479,2860,4460,2857,4460,2852z"/>
	<path class="st0" d="M4865,2811c-19-8-18-9,7-21c22-10,33-10,58,0c16,7,30,16,30,21C4960,2822,4892,2822,4865,2811z"/>
	<path class="st0" d="M7083,2793c-18-7-16-20,3-27c17-6,44,9,44,25C7130,2801,7103,2802,7083,2793z"/>
	<path class="st0" d="M3960,2760c19-13,30-13,30,0c0,6-10,10-22,10C3949,2770,3948,2768,3960,2760z"/>
	<path class="st0" d="M6110,2729c0-5,5-7,10-4c6,3,10,8,10,11c0,2-4,4-10,4C6115,2740,6110,2735,6110,2729z"/>
	<path class="st0" d="M4104,2706c-8-22-2-27,16-16c12,7,12,12,3,21C4113,2721,4109,2720,4104,2706z"/>
	<path class="st0" d="M4823,2713c15-2,37-2,50,0c12,2,0,4-28,4C4818,2717,4807,2715,4823,2713z"/>
	<path class="st0" d="M4004,2672c12-20,175-113,321-183c133-64,194-102,134-84c-76,23-223,87-357,157c-144,75-199,96-135,50
		c153-108,630-314,883-381c108-28,563-100,855-135c321-38,554-43,790-15c115,14,130,22,70,39c-49,14-134,16-365,11
		c-127-3-153-1-211,17c-56,19-74,20-125,12c-136-22-335-9-654,44c-139,23-158,30-468,155c-178,71-378,158-445,192s-147,75-177,91
		C4059,2673,3992,2690,4004,2672z"/>
	<path class="st0" d="M4280,2651c0-15,29-33,45-27c28,10,17,36-15,36C4294,2660,4280,2656,4280,2651z"/>
	<path class="st0" d="M5793,2563c-69-48-92-70-103-97c-14-37,12-46,50-17c38,28,46,27,59-9c13-38,28-38,69-1c24,23,32,38,32,65
		C5900,2592,5864,2612,5793,2563z"/>
	<path class="st0" d="M5673,2550c-33-20-41-30-24-30c10,0,70,49,61,50C5707,2570,5690,2561,5673,2550z"/>
	<path class="st0" d="M5546,2523c-6-14-5-15,5-6c7,7,10,15,7,18S5549,2533,5546,2523z"/>
	<path class="st0" d="M6943,2526c-36-17-62-54-41-60c17-6,355-20,478-20c77-1,102,3,124,17c15,10,26,20,24,22c-11,11-310,47-423,51
		C7005,2540,6968,2537,6943,2526z"/>
	<path class="st0" d="M5980,2508c-47-32-58-54-39-73c14-14,21-11,71,24c31,22,58,47,62,56C6083,2539,6019,2534,5980,2508z"/>
	<path class="st0" d="M7992,2518c-18-18-15-28,8-28c21,0,25,7,12,27C8006,2527,8001,2527,7992,2518z"/>
	<path class="st0" d="M7657,2493c-12-11-7-33,7-33c12,0,26,20,26,36C7690,2503,7664,2501,7657,2493z"/>
	<path class="st0" d="M8220,2493c-94-7-115-24-47-37c31-6,189,6,264,20C8533,2494,8385,2506,8220,2493z"/>
	<path class="st0" d="M4595,2460c-9-14,45-34,58-21c5,5,6,14,3,20C4647,2473,4603,2473,4595,2460z"/>
	<path class="st0" d="M6156,2429c-23-18-36-49-20-49c14,0,72,41,78,55C6222,2457,6187,2454,6156,2429z"/>
	<path class="st0" d="M5342,2428c-14-14-16-38-4-38s32,23,32,37C5370,2443,5358,2444,5342,2428z"/>
	<path class="st0" d="M6025,2424c-64-33-79-64-31-64c23,0,70,52,64,70C6056,2436,6042,2433,6025,2424z"/>
	<path class="st0" d="M5450,2400c0-5,5-10,11-10c5,0,7,5,4,10c-3,6-8,10-11,10C5452,2410,5450,2406,5450,2400z"/>
	<path class="st0" d="M4868,2358c128-61,418-126,445-99c12,12-92,61-131,61c-13,0-105,18-203,40s-182,40-186,39
		C4788,2399,4822,2380,4868,2358z"/>
	<path class="st0" d="M6327,2381c-39-25-43-31-21-31c10,0,33,11,49,25C6390,2403,6369,2408,6327,2381z"/>
	<path class="st0" d="M6218,2374c-27-14-35-33-21-47c7-8,63,41,63,55C6260,2393,6249,2391,6218,2374z"/>
	<path class="st0" d="M6441,2379c-42-17-81-50-81-70c0-27,8-24,64,19C6491,2378,6499,2402,6441,2379z"/>
	<path class="st0" d="M6705,2110c-8-13,20-24,40-16c8,3,15,10,15,16C6760,2123,6713,2123,6705,2110z"/>
</g>
</svg>
