<svg width="192" height="192" viewBox="0 0 192 192" fill="none" xmlns="http://www.w3.org/2000/svg">
<path d="M165.02 0H27.2778C17.679 0 10 7.68 10 17.28V174.72C10 184.32 17.679 192 27.2778 192H165.02C174.619 192 182.298 184.32 182.298 174.72V17.28C182.298 7.68 174.619 0 165.02 0ZM172.699 174.72C172.699 179.04 169.339 182.4 165.02 182.4H27.2778C22.9583 182.4 19.5988 179.04 19.5988 174.72V17.28C19.5988 12.96 22.9583 9.6 27.2778 9.6H165.02C169.339 9.6 172.699 12.96 172.699 17.28V174.72ZM53.1944 163.2L74.7916 144L53.1944 124.8V163.2ZM130.944 85.44C127.105 81.6 119.906 76.8 107.907 76.8C94.949 76.8 81.5107 80.16 71.912 83.52V28.8H52.7145V111.84L66.1527 105.6C66.1527 105.6 88.2299 95.52 107.427 95.52C117.026 95.52 119.426 100.8 119.426 105.6V163.2H138.623V105.6C139.103 104.16 139.103 93.6 130.944 85.44ZM105.508 60H124.705C133.344 49.92 137.663 39.84 139.103 28.8H119.906C117.986 39.84 113.187 49.92 105.508 60Z" fill="#430098"/>
</svg>
