<?xml version="1.0" encoding="utf-8"?>
<!-- Generator: Adobe Illustrator 25.2.1, SVG Export Plug-In . SVG Version: 6.00 Build 0)  -->
<svg version="1.1" id="Layer_1" xmlns="http://www.w3.org/2000/svg" xmlns:xlink="http://www.w3.org/1999/xlink" x="0px" y="0px"
	 viewBox="0 0 90.6 122.9" style="enable-background:new 0 0 90.6 122.9;" xml:space="preserve">
<style type="text/css">
	.st0{fill-rule:evenodd;clip-rule:evenodd;fill:#FDFEFF;}
</style>
<g>
	<path class="st0" d="M29.2,95c0,0-4.7,2.7,3.3,3.7c9.7,1.1,14.7,0.9,25.4-1.1c0,0,2.8,1.8,6.8,3.3C40.7,111.2,10.3,100.3,29.2,95
		L29.2,95z"/>
	<path class="st0" d="M26.2,81.6c0,0-5.3,3.9,2.8,4.7c10.4,1.1,18.6,1.2,32.8-1.6c0,0,2,2,5.1,3.1C37.8,96.3,5.4,88.5,26.2,81.6
		L26.2,81.6z"/>
	<path class="st0" d="M51,58.8c5.9,6.8-1.6,13-1.6,13s15-7.8,8.1-17.5C51.2,45.2,46.2,40.6,73,25.1C73,25.1,30.9,35.6,51,58.8
		L51,58.8z"/>
	<path class="st0" d="M82.8,105c0,0,3.5,2.9-3.8,5.1c-13.9,4.2-57.8,5.5-70,0.2c-4.4-1.9,3.8-4.6,6.4-5.1c2.7-0.6,4.2-0.5,4.2-0.5
		c-4.9-3.4-31.5,6.7-13.5,9.7C55.2,122.2,95.6,110.7,82.8,105L82.8,105z"/>
	<path class="st0" d="M31.5,67.6c0,0-22.3,5.3-7.9,7.2c6.1,0.8,18.2,0.6,29.5-0.3c9.2-0.8,18.5-2.4,18.5-2.4s-3.3,1.4-5.6,3
		c-22.7,6-66.5,3.2-53.9-2.9C22.8,67.1,31.5,67.6,31.5,67.6L31.5,67.6z"/>
	<path class="st0" d="M71.5,90c23-12,12.4-23.5,4.9-21.9c-1.8,0.4-2.6,0.7-2.6,0.7s0.7-1.1,2-1.5c14.7-5.2,26,15.3-4.8,23.4
		C71.1,90.6,71.4,90.3,71.5,90L71.5,90z"/>
	<path class="st0" d="M57.6,0c0,0,12.8,12.8-12.1,32.4c-20,15.8-4.5,24.7,0,35C33.8,56.9,25.3,47.7,31,39
		C39.5,26.4,62.8,20.3,57.6,0L57.6,0z"/>
	<path class="st0" d="M33.7,122.5c22.1,1.4,56.1-0.8,56.9-11.3c0,0-1.6,4-18.3,7.1c-18.9,3.6-42.2,3.1-56,0.9
		C16.3,119.2,19.2,121.6,33.7,122.5L33.7,122.5z"/>
</g>
<rect x="133.6" y="43.8" class="st0" width="0.3" height="0.3"/>
</svg>
