<?xml version="1.0" encoding="utf-8"?>
<!-- Generator: Adobe Illustrator 25.2.1, SVG Export Plug-In . SVG Version: 6.00 Build 0)  -->
<svg version="1.1" id="Layer_1" xmlns="http://www.w3.org/2000/svg" xmlns:xlink="http://www.w3.org/1999/xlink" x="0px" y="0px"
	 viewBox="0 0 546 115" style="enable-background:new 0 0 546 115;" xml:space="preserve">
<style type="text/css">
	.st0{fill:#FFFFFF;}
</style>
<g transform="translate(0.000000,115.000000) scale(0.100000,-0.100000)">
	<path class="st0" d="M2715,1077c-97-51-100-54-95-82c3-17,5-147,5-289c0-236-2-260-18-270c-42-26-65,6-209,289l-136,270h-37h-36
		l-128-270c-128-272-127-270-189-302c-2-1-1-11,3-22c6-20,14-21,115-21c89,0,109,3,114,16c11,28,7,32-34,39c-22,4-42,10-45,15
		s7,36,21,69l27,61h118h119l30-60c16-33,30-64,30-69s-20-13-45-17c-39-5-45-10-45-30v-24h265c253,0,265,1,275,20c9,16,6,22-20,35
		l-30,16v294v294l30,34c29,33,38,57,23,57C2818,1130,2770,1106,2715,1077z M2235,730l45-90h-90h-89l19,45c11,25,29,65,40,90
		c10,25,22,45,25,45C2187,820,2210,780,2235,730z"/>
	<path class="st0" d="M3357,1078l-97-52l7-90c5-50,8-178,7-285V457l-27-23c-15-13-27-30-27-39c0-13,16-15,118-13c108,3,117,4,120,23
		c2,13-5,24-20,30c-30,14-39,57-29,146c9,78,26,117,64,142c26,17,61,7,76-22c12-21,15-163,5-222c-4-25-14-41-30-50
		c-13-7-24-21-24-31c0-17,9-18,118-16c111,3,117,4,120,25c2,14-3,23-18,28c-32,10-37,39-30,155c4,57,3,119-2,136
		c-10,38-89,114-118,114c-31,0-76-26-128-73l-45-42l6,55c4,30,7,101,7,157c0,99,1,103,30,136s38,57,23,57
		C3458,1130,3411,1106,3357,1078z"/>
	<path class="st0" d="M560,1000c-7-17-17-33-21-36c-5-3-39,7-76,21c-109,44-206,23-333-73C-4,810-14,716,97,591l39-45l-33-55
		c-18-30-33-58-33-63c0-17,139-50,231-55c111-6,133,1,212,75c61,58,87,108,87,168c0,85-65,160-155,178c-27,5-40-3-120-70l-89-77
		l-33,38c-43,50-60,111-41,144c48,87,199,83,328-9l29-21l20,40c32,62,71,172,65,182C593,1039,572,1029,560,1000z M428,664
		c51-36,69-127,32-164c-35-35-178-20-243,25c-17,12-11,19,65,83C369,682,391,690,428,664z"/>
	<path class="st0" d="M925,996c-137-44-255-148-284-250c-13-49,3-136,34-186c34-54,111-119,181-151c54-26,65-28,110-20
		c200,39,301,153,320,362c5,50,3,74-10,100c-48,101-139,159-248,158C993,1009,947,1003,925,996z M1010,900c77-18,100-31,124-74
		c64-113,25-281-76-326c-39-17-44-17-82-3c-142,55-238,190-208,292C797,885,888,927,1010,900z"/>
	<path class="st0" d="M1316,984c-10-27-7-30,34-43c27-8,42-19,45-34c3-12,4-121,3-242l-3-220l-42-9c-36-7-43-13-43-32v-24h260
		c143,0,263-1,267-2c10-4,20,50,29,145c6,71,5,77-12,77c-15,0-24-15-39-57c-14-40-28-62-45-70c-33-17-192-17-208-1
		c-15,15-17,420-2,447c5,10,25,22,45,25c29,6,35,11,35,31v25h-159C1345,1000,1321,998,1316,984z"/>
	<path class="st0" d="M5060,836c-75-31-137-64-145-76c-3-5,35-88,84-183c50-96,91-178,91-183s-36-40-80-77c-75-64-81-72-101-137
		s-19-90,1-90c5,0,15,12,22,28c19,39,72,53,231,59c153,6,153,7,120-62c-12-26-14-38-6-46c14-14,63,50,99,126c20,43,22,52,10,70
		c-13,19-24,20-170,20c-86,0-156,1-156,2s26,23,58,48c115,93,234,218,260,273c41,89,16,163-69,212c-35,19-44,20-69,10
		c-15-6-38-22-50-35c-26-28-20-44,30-77c50-34,64-67,49-117c-12-40-62-111-72-101c-14,14-127,252-127,267c0,9,15,29,33,44
		C5151,852,5129,864,5060,836z"/>
	<path class="st0" d="M3020,829c-100-61-159-137-167-214c-8-76,11-137,61-192c37-40,47-46,93-50c42-5,59-1,101,22c28,15,65,43,83,61
		c31,32,32,35,17,50s-19,15-51-5c-97-60-183,18-175,159c2,37,9,75,17,84c11,14,16,14,41,1c15-8,37-30,49-50c23-39,25-39,98-9
		c45,19,46,58,1,101C3113,856,3079,865,3020,829z"/>
	<path class="st0" d="M3904,816c-119-80-168-175-144-282c32-143,152-206,261-135c61,40,101,84,93,104c-8,22-23,21-54-3
		c-39-30-92-26-128,10c-26,26-49,76-40,86c2,2,53,25,113,52c104,46,110,50,113,80c3,34-22,66-83,103C3992,858,3961,855,3904,816z
		 M3949,750c4,0,18-10,30-22l24-21l-54-28c-30-16-57-28-61-29c-13,0-9,38,7,76c11,26,19,34,31,30C3934,753,3945,750,3949,750z"/>
	<path class="st0" d="M4235,821c-78-37-78-37-59-111c12-48,15-91,12-164c-5-99-12-116-51-129c-6-2-8-11-4-20c6-16,20-17,119-15
		c106,3,113,4,116,24c2,14-5,24-23,32c-24,11-25,15-25,97c0,91,12,134,49,173c12,12,33,22,46,22c39,0,55-44,55-152
		c0-113-5-132-36-149c-14-7-23-20-22-28c3-13,22-16,118-16c112,0,115,1,118,23c2,14-2,22-11,22c-31,0-41,30-39,115
		c2,94,9,118,47,158c33,34,69,35,91,2c14-21,16-45,12-141c-4-118-10-133-51-147c-6-2-8-11-4-20c5-15,22-17,116-17
		c104,0,110,1,117,22c4,14,2,24-6,26c-7,3-20,12-30,22c-15,15-16,34-12,153l5,137l-50,50c-31,31-59,50-73,50c-27,0-105-48-140-85
		c-30-32-35-31-50,5c-16,38-65,80-92,80c-25,0-104-49-139-86l-24-26l-5,53C4304,843,4294,849,4235,821z"/>
	<path class="st0" d="M852,324c-68-58-85-106-22-59c60,44,91,37,336-75c129-59,161-70,207-70c63,0,97,21,126,79c22,43,30,94,16,100
		c-5,3-24-20-40-50c-21-36-38-55-53-57c-12-2-119,35-237,82C934,374,913,377,852,324z"/>
</g>
</svg>
