<?xml version="1.0" encoding="utf-8"?>
<!-- Generator: Adobe Illustrator 25.2.1, SVG Export Plug-In . SVG Version: 6.00 Build 0)  -->
<svg version="1.1"
	 id="svg3100" xmlns:cc="http://creativecommons.org/ns#" xmlns:dc="http://purl.org/dc/elements/1.1/" xmlns:rdf="http://www.w3.org/1999/02/22-rdf-syntax-ns#" xmlns:svg="http://www.w3.org/2000/svg"
	 xmlns="http://www.w3.org/2000/svg" xmlns:xlink="http://www.w3.org/1999/xlink" x="0px" y="0px" viewBox="0 0 6631.6 1081.6"
	 style="enable-background:new 0 0 6631.6 1081.6;" xml:space="preserve">
<style type="text/css">
	.st0{clip-path:url(#SVGID_2_);fill:#FFFFFF;stroke:#FFFFFF;stroke-width:113.3858;stroke-miterlimit:15.1181;}
	.st1{clip-path:url(#SVGID_4_);fill:#FFFFFF;stroke:#FFFFFF;stroke-width:26.4567;stroke-miterlimit:15.1181;}
	.st2{clip-path:url(#SVGID_6_);fill:#FFFFFF;stroke:#FFFFFF;stroke-width:26.4567;stroke-miterlimit:15.1181;}
	.st3{clip-path:url(#SVGID_8_);fill:#FFFFFF;stroke:#FFFFFF;stroke-width:26.4567;stroke-miterlimit:15.1181;}
	.st4{clip-path:url(#SVGID_10_);fill:#FFFFFF;stroke:#FFFFFF;stroke-width:26.4567;stroke-miterlimit:15.1181;}
	.st5{clip-path:url(#SVGID_12_);fill:#FFFFFF;stroke:#FFFFFF;stroke-width:26.4567;stroke-miterlimit:15.1181;}
	.st6{clip-path:url(#SVGID_14_);fill:#FFFFFF;stroke:#FFFFFF;stroke-width:26.4567;stroke-miterlimit:15.1181;}
	.st7{fill:#FFFFFF;}
	.st8{font-family:'Roboto-Regular';}
	.st9{font-size:1000.4063px;}
</style>
<g id="layer1" transform="translate(-104.76234,114.73583)">
	<g>
		<defs>
			<rect id="SVGID_1_" x="124.8" y="-94.7" width="1029.5" height="1041.6"/>
		</defs>
		<use xlink:href="#SVGID_1_"  style="overflow:visible;fill:#FFFFFF;"/>
		<clipPath id="SVGID_2_">
			<use xlink:href="#SVGID_1_"  style="overflow:visible;"/>
		</clipPath>
		<path id="path3655" class="st0" d="M173.2,1460.3c0,0-15.8-907.1,204.9-1036.4c243-142.3,434.7,86.8,584-38.8
			c195.7-164.6,181.2-745.3,181.2-745.3"/>
	</g>
	<g>
		<defs>
			<rect id="SVGID_3_" x="124.8" y="-94.7" width="1029.5" height="1041.6"/>
		</defs>
		<use xlink:href="#SVGID_3_"  style="overflow:visible;fill:#FFFFFF;"/>
		<clipPath id="SVGID_4_">
			<use xlink:href="#SVGID_3_"  style="overflow:visible;"/>
		</clipPath>
		<path id="path3727" class="st1" d="M444.4,909.9c-52.1,0-94.5-42.4-94.5-94.5c0-52.1,42.4-94.5,94.5-94.5
			c52.1,0,94.5,42.4,94.5,94.5C538.9,867.5,496.5,909.9,444.4,909.9L444.4,909.9z M444.4,780.6c-19.2,0,60.6,72.7-34.8,34.8
			c-17.9-7.1,15.6,34.8,34.8,34.8s34.8-15.6,34.8-34.8C479.2,796.2,463.6,780.6,444.4,780.6z"/>
	</g>
	<g>
		<defs>
			<rect id="SVGID_5_" x="124.8" y="-94.7" width="1029.5" height="1041.6"/>
		</defs>
		<use xlink:href="#SVGID_5_"  style="overflow:visible;fill:#FFFFFF;"/>
		<clipPath id="SVGID_6_">
			<use xlink:href="#SVGID_5_"  style="overflow:visible;"/>
		</clipPath>
		<path id="path3727-4" class="st2" d="M861,145.9c-52.1,0-94.5-42.4-94.5-94.5C766.5-0.6,808.9-43,861-43s94.5,42.4,94.5,94.5
			C955.5,103.6,913.1,145.9,861,145.9L861,145.9z M861,16.6c-19.2,0,56.6,72.2-34.8,34.8c-17.8-7.3,15.6,34.8,34.8,34.8
			c19.2,0,34.8-15.6,34.8-34.8C895.8,32.2,880.2,16.6,861,16.6z"/>
	</g>
	<g>
		<defs>
			<rect id="SVGID_7_" x="124.8" y="-94.7" width="1029.5" height="1041.6"/>
		</defs>
		<use xlink:href="#SVGID_7_"  style="overflow:visible;fill:#FFFFFF;"/>
		<clipPath id="SVGID_8_">
			<use xlink:href="#SVGID_7_"  style="overflow:visible;"/>
		</clipPath>
		<path id="path3727-4-9" class="st3" d="M267.5,288.6c-52.1,0-94.5-42.4-94.5-94.5c0-52.1,42.4-94.5,94.5-94.5
			c52.1,0,94.5,42.4,94.5,94.5C362,246.2,319.6,288.6,267.5,288.6z M267.5,159.3c-19.2,0,56.1,68.6-34.8,34.8
			c-18-6.7,15.6,34.8,34.8,34.8s34.8-15.6,34.8-34.8S286.8,159.3,267.5,159.3z"/>
	</g>
	<g>
		<defs>
			<rect id="SVGID_9_" x="124.8" y="-94.7" width="1029.5" height="1041.6"/>
		</defs>
		<use xlink:href="#SVGID_9_"  style="overflow:visible;fill:#FFFFFF;"/>
		<clipPath id="SVGID_10_">
			<use xlink:href="#SVGID_9_"  style="overflow:visible;"/>
		</clipPath>
		<path id="path3727-4-9-8" class="st4" d="M1026.9,731.9c-52.1,0-94.5-42.4-94.5-94.5c0-52.1,42.4-94.5,94.5-94.5
			c52.1,0,94.5,42.4,94.5,94.5C1121.4,689.5,1079,731.9,1026.9,731.9L1026.9,731.9z M1026.9,602.6c-19.2,0,56.1,70.9-34.8,34.8
			c-17.9-7.1,15.6,34.8,34.8,34.8s34.8-15.6,34.8-34.8S1046.1,602.6,1026.9,602.6z"/>
	</g>
	<g>
		<defs>
			<rect id="SVGID_11_" x="124.8" y="-94.7" width="1029.5" height="1041.6"/>
		</defs>
		<use xlink:href="#SVGID_11_"  style="overflow:visible;fill:#FFFFFF;"/>
		<clipPath id="SVGID_12_">
			<use xlink:href="#SVGID_11_"  style="overflow:visible;"/>
		</clipPath>
		<path id="path3727-4-9-8-1" class="st5" d="M640.8,693.5c-52.1,0-94.5-42.4-94.5-94.5c0-52.1,42.4-94.5,94.5-94.5
			c52.1,0,94.5,42.4,94.5,94.5C735.3,651.1,692.9,693.5,640.8,693.5z M640.8,564.1c-19.2,0,63.7,66.1-34.8,34.8
			c-18.3-5.8,15.6,34.8,34.8,34.8c19.2,0,34.8-15.6,34.8-34.8S660,564.1,640.8,564.1z"/>
	</g>
	<g>
		<defs>
			<rect id="SVGID_13_" x="124.8" y="-94.7" width="1029.5" height="1041.6"/>
		</defs>
		<use xlink:href="#SVGID_13_"  style="overflow:visible;fill:#FFFFFF;"/>
		<clipPath id="SVGID_14_">
			<use xlink:href="#SVGID_13_"  style="overflow:visible;"/>
		</clipPath>
		<path id="path3727-4-8" class="st6" d="M527.7,129.8c-52.1,0-94.5-42.4-94.5-94.5c0-52.1,42.4-94.5,94.5-94.5s94.5,42.4,94.5,94.5
			C622.1,87.4,579.7,129.8,527.7,129.8L527.7,129.8z M527.7,0.5c-8.5,7.5,49.7,74.4-34.8,34.8c-17.4-8.2,15.6,34.8,34.8,34.8
			c19.2,0,34.8-15.6,34.8-34.8C562.5,16.1,542-12.3,527.7,0.5z"/>
	</g>
	<text transform="matrix(1 0 0 1 1236.1295 926.1235)" class="st7 st8 st9">statsmodels</text>
</g>
</svg>
